<svg width="1920" height="1080" xmlns="http://www.w3.org/2000/svg" style="background:#fff">
  <!--
    YÊU CẦU NGHIỆP VỤ CHO TAB TIẾN ĐỘ (GANTT CHART)
    1. Dự án:
      - Sau khi tạo mới, mặc định có 3 giai đoạn: Xây dựng BCKTKT, Thẩm định và phê duyệt BCKTKT, Quyết toán.
      - Khi thêm mới gói thầu, chèn thêm 1 dòng tên gói thầu và 7 giai đoạn vào giữa "Thẩm định và phê duyệt BCKTKT" và "Quyết toán":
        1. Xây dựng hồ sơ mời thầu
        2. Thẩm định và phê duyệt HSMT
        3. Tổ chức đấu thầu
        4. Thẩm định và phê duyệt KQLCNT
        5. Ký hợp đồng
        6. Triển khai hợp đồng
        7. Nghiệm thu thanh lý hợp đồng
    2. Phương án mua sắm hàng hoá:
      - Sau khi tạo mới, mặc định có 3 giai đoạn: Xây dựng PAMS, Thẩm định và phê duyệt PAMS, Quyết toán.
      - Khi thêm mới gói thầu, chèn thêm 1 dòng tên gói thầu và 7 giai đoạn vào giữa "Thẩm định và phê duyệt PAMS" và "Quyết toán":
        1. Thẩm định và phê duyệt HSMT
        2. Tổ chức đấu thầu
        3. Thẩm định và phê duyệt KQLCNT
        4. Ký hợp đồng
        5. Triển khai hợp đồng
        6. Nghiệm thu thanh lý hợp đồng
    3. Phương án mua sắm dịch vụ:
      - Sau khi tạo mới, mặc định có 2 giai đoạn: Xây dựng PAMS, Thẩm định và phê duyệt PAMS (không có Quyết toán).
      - Khi thêm mới gói thầu, chèn thêm 1 dòng tên gói thầu và 7 giai đoạn vào sau "Thẩm định và phê duyệt PAMS":
        1. Thẩm định và phê duyệt HSMT
        2. Tổ chức đấu thầu
        3. Thẩm định và phê duyệt KQLCNT
        4. Ký hợp đồng
        5. Triển khai hợp đồng
        6. Nghiệm thu thanh lý hợp đồng
    4. Phương án bảo trì:
      - Sau khi tạo mới, mặc định có 2 giai đoạn: Xây dựng PABT, Thẩm định và phê duyệt PABT (không có Quyết toán).
      - Khi thêm mới gói thầu, chèn thêm 1 dòng tên gói thầu và 7 giai đoạn vào sau "Thẩm định và phê duyệt PABT":
        1. Thẩm định và phê duyệt HSMT
        2. Tổ chức đấu thầu
        3. Thẩm định và phê duyệt KQLCNT
        4. Ký hợp đồng
        5. Triển khai hợp đồng
        6. Nghiệm thu thanh lý hợp đồng
    * Nếu có nhiều gói thầu, giao diện tab Tiến độ sẽ xuất hiện thanh cuộn (scrollbar) để người dùng có thể cuộn xem hết các giai đoạn.
  -->
  <!-- Sidebar (đồng bộ với uiux_project_list.svg) -->
  <rect x="0" y="0" width="220" height="1080" fill="#1976D2" />
  <text x="30" y="60" font-size="24" fill="#fff" font-family="Arial">Menu</text>
  <!-- Dashboard -->
  <rect x="0" y="100" width="220" height="50" fill="#1976D2" />
  <text x="30" y="130" font-size="18" fill="#fff" font-family="Arial">Dashboard</text>
  <g stroke="#fff" stroke-width="2" fill="none" transform="translate(8,112)">
    <rect x="0" y="0" width="8" height="8" rx="1" />
    <rect x="10" y="0" width="8" height="8" rx="1" />
    <rect x="0" y="10" width="8" height="8" rx="1" />
    <rect x="10" y="10" width="8" height="8" rx="1" />
  </g>
  <!-- Dự án (active) -->
  <rect x="0" y="150" width="220" height="50" fill="#1565C0" />
  <text x="30" y="180" font-size="18" fill="#fff" font-family="Arial">Dự án</text>
  <g stroke="#fff" stroke-width="2" fill="none" transform="translate(8,162)">
    <rect x="0" y="8" width="18" height="12" rx="2" />
    <rect x="0" y="0" width="10" height="6" rx="1" />
  </g>
  <!-- Hợp đồng -->
  <rect x="0" y="200" width="220" height="50" fill="#1976D2" />
  <text x="30" y="230" font-size="18" fill="#fff" font-family="Arial">Hợp đồng</text>
  <g stroke="#fff" stroke-width="2" fill="none" transform="translate(8,212)">
    <rect x="0" y="0" width="18" height="16" rx="2" />
    <line x1="4" y1="4" x2="14" y2="4" />
    <line x1="4" y1="8" x2="14" y2="8" />
    <line x1="4" y1="12" x2="10" y2="12" />
  </g>
  <!-- Nhà thầu -->
  <rect x="0" y="250" width="220" height="50" fill="#1976D2" />
  <text x="30" y="280" font-size="18" fill="#fff" font-family="Arial">Nhà thầu</text>
  <g stroke="#fff" stroke-width="2" fill="none" transform="translate(8,262)">
    <circle cx="6" cy="6" r="5" />
    <circle cx="14" cy="10" r="4" />
    <path d="M1 16 q5-4 10 0" />
  </g>
  <!-- Kho tri thức -->
  <rect x="0" y="300" width="220" height="50" fill="#1976D2" />
  <text x="30" y="330" font-size="18" fill="#fff" font-family="Arial">Kho tri thức</text>
  <g stroke="#fff" stroke-width="2" fill="none" transform="translate(8,312)">
    <rect x="0" y="0" width="18" height="16" rx="2" />
    <line x1="6" y1="0" x2="6" y2="16" />
  </g>
  <!-- Topbar (adjusted width) -->
  <rect x="220" y="0" width="1700" height="64" fill="#2196F3" />
  <!-- Back button -->
  <g id="back-button" cursor="pointer">
    <rect x="230" y="18" width="32" height="32" rx="8" fill="#1976D2" />
    <polygon points="250,34 262,22 262,46" fill="#fff" />
    <text x="270" y="40" font-size="18" fill="#fff" font-family="Arial">Back</text>
  </g>
  <text x="340" y="40" font-size="24" fill="#fff" font-family="Arial">Chi tiết dự án</text>
  <!-- Breadcrumb -->
  <text x="250" y="90" font-size="16" fill="#757575" font-family="Arial">Dự án &gt; Dự án A</text>
  <!-- Project Info Card (moved to fit new width) -->
  <rect x="250" y="120" width="1620" height="120" rx="12" fill="#fff" stroke="#BDBDBD" />
  <text x="270" y="150" font-size="20" fill="#1976D2" font-family="Arial">Dự án A</text>
  <!-- Kinh phí đầu tư -->
  <text x="270" y="180" font-size="16" fill="#212121" font-family="Arial">Kinh phí đầu tư: 2 tỷ VND</text>
  <text x="600" y="180" font-size="16" fill="#212121" font-family="Arial">Tổng giá trị hợp đồng: 1.8 tỷ VND</text>
  <text x="950" y="180" font-size="16" fill="#212121" font-family="Arial">Loại kế hoạch: Mới</text>
  <text x="270" y="210" font-size="16" fill="#388E3C" font-family="Arial">Trạng thái: Đang thực hiện</text>
  <text x="600" y="210" font-size="16" fill="#212121" font-family="Arial">01/01/2025 - 31/12/2025</text>
  <text x="950" y="210" font-size="16" fill="#212121" font-family="Arial">Năm kế hoạch: 2025</text>
  <!-- Progress bar (stretch to new width) -->
  <rect x="250" y="250" width="1620" height="20" rx="10" fill="#E3F2FD" />
  <rect x="250" y="250" width="810" height="20" rx="10" fill="#1976D2" />
  <text x="1820" y="265" font-size="14" fill="#1976D2" font-family="Arial">50%</text>
  <!-- Tabs as tab style (data-toggle="tab" style, no rounded corners) -->
  <g>
    <rect x="250" y="290" width="150" height="40" fill="#1976D2" />
    <text x="325" y="315" font-size="16" fill="#fff" font-family="Arial" text-anchor="middle">Tiến độ</text>
    <rect x="400" y="290" width="150" height="40" fill="#E3F2FD" stroke="#1976D2" stroke-width="2" />
    <text x="475" y="315" font-size="16" fill="#1976D2" font-family="Arial" text-anchor="middle">Gói thầu</text>
    <rect x="550" y="290" width="150" height="40" fill="#E3F2FD" stroke="#1976D2" stroke-width="2" />
    <text x="625" y="315" font-size="16" fill="#1976D2" font-family="Arial" text-anchor="middle">Nhân sự</text>
    <rect x="700" y="290" width="150" height="40" fill="#E3F2FD" stroke="#1976D2" stroke-width="2" />
    <text x="775" y="315" font-size="16" fill="#1976D2" font-family="Arial" text-anchor="middle">Tài liệu</text>
    <rect x="850" y="290" width="150" height="40" fill="#E3F2FD" stroke="#1976D2" stroke-width="2" />
    <text x="925" y="315" font-size="16" fill="#1976D2" font-family="Arial" text-anchor="middle">Quyết toán</text>
    <rect x="1000" y="290" width="150" height="40" fill="#E3F2FD" stroke="#1976D2" stroke-width="2" />
    <text x="1075" y="315" font-size="16" fill="#1976D2" font-family="Arial" text-anchor="middle">Nhật ký</text>
    <!-- Tab underline for active tab -->
    <rect x="250" y="330" width="150" height="4" fill="#1976D2" />
  </g>
  <!-- Gantt Chart for Tiến độ tab -->
  <g style="overflow-y:auto;max-height:600px;display:block;">
    <!-- Header -->
    <rect x="250" y="350" width="1620" height="40" fill="#E3F2FD" />
    <text x="270" y="375" font-size="16" fill="#1976D2" font-family="Arial">STT</text>
    <text x="320" y="375" font-size="16" fill="#1976D2" font-family="Arial">Giai đoạn</text>
    <text x="650" y="375" font-size="16" fill="#1976D2" font-family="Arial">Ngày bắt đầu</text>
    <text x="800" y="375" font-size="16" fill="#1976D2" font-family="Arial">Ngày kết thúc</text>
    <text x="950" y="375" font-size="16" fill="#1976D2" font-family="Arial">Trạng thái</text>
    <text x="1100" y="375" font-size="16" fill="#1976D2" font-family="Arial">Tiến độ</text>
    <text x="1250" y="375" font-size="16" fill="#1976D2" font-family="Arial">Ngày hoàn thành</text>
    <text x="1480" y="375" font-size="16" fill="#1976D2" font-family="Arial">Chi tiết tiến độ</text>
  </g>
    <!-- Row 1: Xây dựng BCKTKT -->
    <rect x="250" y="390" width="1620" height="60" fill="#fff" stroke="#E0E0E0" />
    <text x="270" y="425" font-size="15" fill="#212121" font-family="Arial">1</text>
    <text x="320" y="425" font-size="15" fill="#212121" font-family="Arial">Xây dựng BCKTKT</text>
    <text x="650" y="425" font-size="15" fill="#212121" font-family="Arial">01/09/2025</text>
    <text x="800" y="425" font-size="15" fill="#212121" font-family="Arial">10/09/2025</text>
    <text x="950" y="425" font-size="15" fill="#388E3C" font-family="Arial">Đã hoàn thành</text>
    <rect x="1100" y="415" width="120" height="20" rx="4" fill="#388E3C" />
    <text x="1160" y="430" font-size="14" fill="#fff" font-family="Arial" text-anchor="middle">100%</text>
    <text x="1300" y="425" font-size="15" fill="#212121" font-family="Arial" text-anchor="middle">10/09/2025</text>
    <text x="1480" y="425" font-size="15" fill="#212121" font-family="Arial">Đã gửi BCKTKT/PAMS/PABT lên Sở KHĐT</text>
    <!-- Pen icon for row 1 (original) -->
    <g cursor="pointer">
      <rect x="1820" y="410" width="32" height="32" rx="8" fill="#E3F2FD" stroke="#1976D2" />
      <path d="M1832 430 l12 -12 8 8 -12 12 z" fill="#1976D2" />
      <rect x="1840" y="422" width="10" height="2" fill="#1976D2" transform="rotate(-45 1845 423)" />
    </g>

    <!-- Row 2: Thẩm định và phê duyệt BCKTKT -->
    <rect x="250" y="450" width="1620" height="60" fill="#FAFAFA" stroke="#E0E0E0" />
    <text x="270" y="485" font-size="15" fill="#212121" font-family="Arial">2</text>
    <text x="320" y="485" font-size="15" fill="#212121" font-family="Arial">Thẩm định và phê duyệt BCKTKT</text>
    <text x="650" y="485" font-size="15" fill="#212121" font-family="Arial">11/09/2025</text>
    <text x="800" y="485" font-size="15" fill="#212121" font-family="Arial">20/09/2025</text>
    <text x="950" y="485" font-size="15" fill="#388E3C" font-family="Arial">Đã hoàn thành</text>
    <rect x="1100" y="475" width="120" height="20" rx="4" fill="#388E3C" />
    <text x="1160" y="490" font-size="14" fill="#fff" font-family="Arial" text-anchor="middle">100%</text>
    <text x="1300" y="485" font-size="15" fill="#212121" font-family="Arial" text-anchor="middle">20/09/2025</text>
    <text x="1480" y="485" font-size="15" fill="#212121" font-family="Arial">Đã phê duyệt BCKTKT/PAMS/PABT</text>
    <!-- Pen icon for row 2 (original) -->
    <g cursor="pointer">
      <rect x="1820" y="470" width="32" height="32" rx="8" fill="#E3F2FD" stroke="#1976D2" />
      <path d="M1832 490 l12 -12 8 8 -12 12 z" fill="#1976D2" />
      <rect x="1840" y="482" width="10" height="2" fill="#1976D2" transform="rotate(-45 1845 483)" />
    </g>

    <!-- Row 3: Gói thầu 1 -->
    <rect x="250" y="510" width="1620" height="60" fill="#fff" stroke="#E0E0E0" />
    <text x="270" y="545" font-size="15" fill="#1976D2" font-family="Arial">Gói thầu 1</text>
    <!-- (Đã xoá nút chỉnh sửa ở dòng tên gói thầu) -->
    <!-- Row 4: Xây dựng hồ sơ mời thầu (Gói thầu 1) -->
    <rect x="250" y="570" width="1620" height="60" fill="#FAFAFA" stroke="#E0E0E0" />
    <text x="270" y="605" font-size="15" fill="#212121" font-family="Arial">4</text>
    <text x="320" y="605" font-size="15" fill="#212121" font-family="Arial">Xây dựng hồ sơ mời thầu</text>
    <text x="650" y="605" font-size="15" fill="#212121" font-family="Arial">21/09/2025</text>
    <text x="800" y="605" font-size="15" fill="#212121" font-family="Arial">30/09/2025</text>
    <text x="950" y="605" font-size="15" fill="#FBC02D" font-family="Arial">Đang thực hiện</text>
    <rect x="1100" y="595" width="80" height="20" rx="4" fill="#FBC02D" />
    <rect x="1180" y="595" width="40" height="20" rx="4" fill="#E0E0E0" />
    <text x="1140" y="610" font-size="14" fill="#fff" font-family="Arial" text-anchor="middle">66%</text>
    <text x="1300" y="605" font-size="15" fill="#212121" font-family="Arial" text-anchor="middle">30/09/2025</text>
    <text x="1480" y="605" font-size="15" fill="#212121" font-family="Arial">Đã gửi HSMT/PAMS/PABT lên Sở KHĐT</text>
    <!-- Nút chỉnh sửa cho bản ghi này -->
    <g cursor="pointer">
      <rect x="1820" y="590" width="32" height="32" rx="8" fill="#E3F2FD" stroke="#1976D2" />
      <path d="M1832 610 l12 -12 8 8 -12 12 z" fill="#1976D2" />
      <rect x="1840" y="602" width="10" height="2" fill="#1976D2" transform="rotate(-45 1845 603)" />
    </g>
    <text x="1300" y="605" font-size="15" fill="#212121" font-family="Arial" text-anchor="middle">30/09/2025</text>
    <text x="1480" y="605" font-size="15" fill="#212121" font-family="Arial">Đã gửi HSMT/PAMS/PABT lên Sở KHĐT</text>
    <!-- Pen icon for row 4 (original) -->
    <g cursor="pointer">
        <rect x="1820" y="630" width="32" height="32" rx="8" fill="#E3F2FD" stroke="#1976D2" />
        <path d="M1832 650 l12 -12 8 8 -12 12 z" fill="#1976D2" />
        <rect x="1840" y="642" width="10" height="2" fill="#1976D2" transform="rotate(-45 1845 643)" />
    <!-- Row 5: Thẩm định và phê duyệt HSMT (Gói thầu 1) -->
    <rect x="250" y="630" width="1620" height="60" fill="#fff" stroke="#E0E0E0" />
    <text x="270" y="665" font-size="15" fill="#212121" font-family="Arial">5</text>
    <text x="320" y="665" font-size="15" fill="#212121" font-family="Arial">Thẩm định và phê duyệt HSMT</text>
    <text x="650" y="665" font-size="15" fill="#212121" font-family="Arial">21/09/2025</text>
    <text x="800" y="665" font-size="15" fill="#212121" font-family="Arial">30/09/2025</text>
    <text x="950" y="665" font-size="15" fill="#388E3C" font-family="Arial">Đã hoàn thành</text>
    <rect x="1100" y="655" width="120" height="20" rx="4" fill="#388E3C" />
    <text x="1160" y="670" font-size="14" fill="#fff" font-family="Arial" text-anchor="middle">100%</text>
    <text x="1300" y="665" font-size="15" fill="#212121" font-family="Arial" text-anchor="middle">30/09/2025</text>
    <text x="1480" y="665" font-size="15" fill="#212121" font-family="Arial">Đã gửi HSMT/PAMS/PABT lên Sở KHĐT</text>
    <!-- Pen icon for row 5 (original) -->
    <g cursor="pointer">
      <rect x="1820" y="630" width="32" height="32" rx="8" fill="#E3F2FD" stroke="#1976D2" />
      <path d="M1832 650 l12 -12 8 8 -12 12 z" fill="#1976D2" />
      <rect x="1840" y="642" width="10" height="2" fill="#1976D2" transform="rotate(-45 1845 643)" />
    </g>

    <!-- Row 6: Tổ chức đấu thầu (Gói thầu 1) -->
    <rect x="250" y="690" width="1620" height="60" fill="#FAFAFA" stroke="#E0E0E0" />
    <text x="270" y="725" font-size="15" fill="#212121" font-family="Arial">6</text>
    <text x="320" y="725" font-size="15" fill="#212121" font-family="Arial">Tổ chức đấu thầu</text>
    <text x="650" y="725" font-size="15" fill="#212121" font-family="Arial">01/10/2025</text>
    <text x="800" y="725" font-size="15" fill="#212121" font-family="Arial">10/10/2025</text>
    <text x="950" y="725" font-size="15" fill="#FBC02D" font-family="Arial">Đang thực hiện</text>
    <rect x="1100" y="715" width="80" height="20" rx="4" fill="#FBC02D" />
    <rect x="1180" y="715" width="40" height="20" rx="4" fill="#E0E0E0" />
    <text x="1140" y="730" font-size="14" fill="#fff" font-family="Arial" text-anchor="middle">66%</text>
    <text x="1300" y="725" font-size="15" fill="#212121" font-family="Arial" text-anchor="middle">...</text>
    <text x="1480" y="725" font-size="15" fill="#212121" font-family="Arial">Đã hoàn thành 2/3 chương mục</text>
    <g cursor="pointer">
      <rect x="1820" y="710" width="32" height="32" rx="8" fill="#E3F2FD" stroke="#1976D2" />
      <path d="M1832 730 l12 -12 8 8 -12 12 z" fill="#1976D2" />
      <rect x="1840" y="722" width="10" height="2" fill="#1976D2" transform="rotate(-45 1845 723)" />
    </g>

    <!-- Row 7: Thẩm định và phê duyệt KQLCNT (Gói thầu 1) -->
    <rect x="250" y="750" width="1620" height="60" fill="#fff" stroke="#E0E0E0" />
    <text x="270" y="785" font-size="15" fill="#212121" font-family="Arial">7</text>
    <text x="320" y="785" font-size="15" fill="#212121" font-family="Arial">Thẩm định và phê duyệt KQLCNT</text>
    <text x="650" y="785" font-size="15" fill="#212121" font-family="Arial">11/10/2025</text>
    <text x="800" y="785" font-size="15" fill="#212121" font-family="Arial">20/10/2025</text>
    <text x="950" y="785" font-size="15" fill="#388E3C" font-family="Arial">Đã hoàn thành</text>
    <rect x="1100" y="775" width="120" height="20" rx="4" fill="#388E3C" />
    <text x="1160" y="790" font-size="14" fill="#fff" font-family="Arial" text-anchor="middle">100%</text>
    <text x="1300" y="785" font-size="15" fill="#212121" font-family="Arial" text-anchor="middle">20/10/2025</text>
    <text x="1480" y="785" font-size="15" fill="#212121" font-family="Arial">Đã phê duyệt KQLCNT/PAMS/PABT</text>
    <!-- Pen icon for row 7 (original) -->
    <g cursor="pointer">
      <rect x="1820" y="770" width="32" height="32" rx="8" fill="#E3F2FD" stroke="#1976D2" />
      <path d="M1832 790 l12 -12 8 8 -12 12 z" fill="#1976D2" />
      <rect x="1840" y="782" width="10" height="2" fill="#1976D2" transform="rotate(-45 1845 783)" />
    </g>

    <!-- Row 8: Ký hợp đồng (Gói thầu 1) -->
    <rect x="250" y="810" width="1620" height="60" fill="#FAFAFA" stroke="#E0E0E0" />
    <text x="270" y="845" font-size="15" fill="#212121" font-family="Arial">8</text>
    <text x="320" y="845" font-size="15" fill="#212121" font-family="Arial">Ký hợp đồng</text>
    <text x="650" y="845" font-size="15" fill="#212121" font-family="Arial">21/10/2025</text>
    <text x="800" y="845" font-size="15" fill="#212121" font-family="Arial">30/10/2025</text>
    <text x="950" y="845" font-size="15" fill="#FBC02D" font-family="Arial">Đang thực hiện</text>
    <rect x="1100" y="835" width="80" height="20" rx="4" fill="#FBC02D" />
    <rect x="1180" y="835" width="40" height="20" rx="4" fill="#E0E0E0" />
    <text x="1140" y="850" font-size="14" fill="#fff" font-family="Arial" text-anchor="middle">66%</text>
    <text x="1300" y="845" font-size="15" fill="#212121" font-family="Arial" text-anchor="middle">...</text>
    <text x="1480" y="845" font-size="15" fill="#212121" font-family="Arial">Đã hoàn thành 2/3 chương mục</text>
    <g cursor="pointer">
      <rect x="1820" y="830" width="32" height="32" rx="8" fill="#E3F2FD" stroke="#1976D2" />
      <path d="M1832 850 l12 -12 8 8 -12 12 z" fill="#1976D2" />
      <rect x="1840" y="852" width="10" height="2" fill="#1976D2" transform="rotate(-45 1845 853)" />
    </g>

    <!-- Row 9: Triển khai hợp đồng (Gói thầu 1) -->
    <rect x="250" y="870" width="1620" height="60" fill="#fff" stroke="#E0E0E0" />
    <text x="270" y="905" font-size="15" fill="#212121" font-family="Arial">9</text>
    <text x="320" y="905" font-size="15" fill="#212121" font-family="Arial">Triển khai hợp đồng</text>
    <text x="650" y="905" font-size="15" fill="#212121" font-family="Arial">01/11/2025</text>
    <text x="800" y="905" font-size="15" fill="#212121" font-family="Arial">10/11/2025</text>
    <text x="950" y="905" font-size="15" fill="#FBC02D" font-family="Arial">Đang thực hiện</text>
    <rect x="1100" y="895" width="80" height="20" rx="4" fill="#FBC02D" />
    <rect x="1180" y="895" width="40" height="20" rx="4" fill="#E0E0E0" />
    <text x="1140" y="910" font-size="14" fill="#fff" font-family="Arial" text-anchor="middle">66%</text>
    <text x="1300" y="905" font-size="15" fill="#212121" font-family="Arial" text-anchor="middle">...</text>
    <text x="1480" y="905" font-size="15" fill="#212121" font-family="Arial">Đã hoàn thành 2/3 chương mục</text>
    <g cursor="pointer">
      <rect x="1820" y="890" width="32" height="32" rx="8" fill="#E3F2FD" stroke="#1976D2" />
      <path d="M1832 910 l12 -12 8 8 -12 12 z" fill="#1976D2" />
      <rect x="1840" y="892" width="10" height="2" fill="#1976D2" transform="rotate(-45 1845 893)" />
    </g>

    <!-- Row 10: Nghiệm thu thanh lý hợp đồng (Gói thầu 1) -->
    <rect x="250" y="930" width="1620" height="60" fill="#FAFAFA" stroke="#E0E0E0" />
    <text x="270" y="965" font-size="15" fill="#212121" font-family="Arial">10</text>
    <text x="320" y="965" font-size="15" fill="#212121" font-family="Arial">Nghiệm thu thanh lý hợp đồng</text>
    <text x="650" y="965" font-size="15" fill="#212121" font-family="Arial">11/11/2025</text>
    <text x="800" y="965" font-size="15" fill="#212121" font-family="Arial">20/11/2025</text>
    <text x="950" y="965" font-size="15" fill="#FBC02D" font-family="Arial">Đang thực hiện</text>
    <rect x="1100" y="955" width="40" height="20" rx="4" fill="#FBC02D" />
    <rect x="1140" y="955" width="80" height="20" rx="4" fill="#E0E0E0" />
    <text x="1120" y="970" font-size="14" fill="#fff" font-family="Arial" text-anchor="middle">40%</text>
    <text x="1300" y="965" font-size="15" fill="#212121" font-family="Arial" text-anchor="middle">...</text>
    <text x="1480" y="965" font-size="15" fill="#212121" font-family="Arial">Đã hoàn thành 2/5 hạng mục quyết toán</text>
    <g cursor="pointer">
      <rect x="1820" y="950" width="32" height="32" rx="8" fill="#E3F2FD" stroke="#1976D2" />
      <path d="M1835 965 l15 -15 7 7 -15 15 z" fill="#1976D2" />
      <rect x="1845" y="965" width="10" height="2" fill="#1976D2" transform="rotate(-45 1850 966)" />
    </g>
  </g>
  <!-- Notification & Setting buttons (topbar, right side) -->
  <g id="notification-button" cursor="pointer">
    <circle cx="1800" cy="32" r="18" fill="#fff" stroke="#1976D2" stroke-width="2" />
    <path d="M1792 36 Q1800 20 1808 36" stroke="#1976D2" stroke-width="2" fill="none" />
    <circle cx="1800" cy="38" r="3" fill="#1976D2" />
  </g>
  <g id="setting-button" cursor="pointer">
    <circle cx="1850" cy="32" r="18" fill="#fff" stroke="#1976D2" stroke-width="2" />
    <circle cx="1850" cy="32" r="7" fill="none" stroke="#1976D2" stroke-width="2" />
    <rect x="1847" y="25" width="6" height="14" rx="2" fill="#1976D2" />
  </g>
</svg>
